<?xml version="1.0" encoding="utf-8"?>
<!-- Generator: Adobe Illustrator 19.2.1, SVG Export Plug-In . SVG Version: 6.00 Build 0)  -->
<svg version="1.1" id="layer" xmlns="http://www.w3.org/2000/svg" xmlns:xlink="http://www.w3.org/1999/xlink" x="0px" y="0px"
	 viewBox="0 0 352 352" style="enable-background:new 0 0 352 352;" xml:space="preserve">
<style type="text/css">
	.st0{fill:#D40119;}
	.st1{fill-rule:evenodd;clip-rule:evenodd;fill:#D40119;}
</style>
<polygon class="st0" points="52.7,277.1 52.7,327.5 70.1,327.5 70.1,311 87.8,311 87.8,296.9 70.1,296.9 70.1,291.2 87.8,291.2 
	87.8,277.1 "/>
<polygon class="st0" points="93.8,277.1 93.8,327.5 132.5,327.5 132.5,313.1 111.4,313.1 111.4,277.1 "/>
<rect x="138.1" y="277.1" class="st0" width="18" height="50.4"/>
<g>
	<path class="st1" d="M190,328.2c8.2,0,16.3-2.5,22.3-6.8l0.2-0.1v-22h-21.4v11h5.4v2.4c-0.2,0.1-0.4,0.2-0.4,0.2
		c-2.4,1-3.5,1.4-6.2,1.4c-9.4,0-13.3-3.4-13.3-11.6c0-9.2,3.9-12.5,15-12.5c5.6,0,11.8,1.5,17.5,4.1l1.4,0.6v-14.3l-0.3-0.1
		c-3.1-1.3-4.2-1.8-6.7-2.4c-3.9-1.1-8.5-1.7-12.9-1.7c-18.2,0-30.3,10.4-30.3,25.9C160.2,317.5,172.5,328.2,190,328.2"/>
	<polygon class="st1" points="233.4,310.1 250.1,310.1 250.1,327.5 266.9,327.5 266.9,277.1 250.1,277.1 250.1,294.4 233.4,294.4 
		233.4,277.1 216.5,277.1 216.5,327.5 233.4,327.5 	"/>
	<polygon class="st1" points="286.3,327.5 305,327.5 305,291.7 320.2,291.7 320.2,277.1 271,277.1 271,291.7 286.3,291.7 	"/>
	<polygon class="st1" points="498.1,327.5 516.8,327.5 516.8,291.7 532,291.7 532,277.1 482.8,277.1 482.8,291.7 498.1,291.7 	"/>
	<path class="st1" d="M362.2,328c7.2,0,13-1.5,19.6-5l0.2-0.1v-11.6l-0.1-4.4l-0.7,0.8c-0.1,0.1-5.8,5.8-14.6,6.2
		c-6.7,0.3-10.9-2.7-12.9-4.6c-2.3-2.2-3.7-4.9-3.7-7.2c0-4.7,5-11.7,15.7-11.7c7,0,11.6,1.6,14.9,5.2l0.8,0.8v-15.4l-0.2-0.1
		c-1.6-1-2.3-1.3-4.3-2c-4.8-1.8-8.4-2.4-13.7-2.4c-6.2,0-11.7,1.2-16.2,3.5c-8.8,4.5-14,12.9-14,22.3C333,317.5,345,328,362.2,328"
		/>
	<polygon class="st1" points="423.7,314.8 403.2,314.8 403.2,309.1 422.1,309.1 422.1,296.3 403.2,296.3 403.2,289.9 423.1,289.9 
		423.1,277.2 386.3,277.2 386.3,327.3 423.7,327.3 	"/>
	<polygon class="st1" points="624.9,314.8 604.4,314.8 604.4,309.1 623.3,309.1 623.3,296.3 604.4,296.3 604.4,289.9 624.3,289.9 
		624.3,277.2 587.5,277.2 587.5,327.3 624.9,327.3 	"/>
	<path class="st1" d="M444.4,303c1.4,1.6,21.3,24.3,21.3,24.3h14.4v-50.1h-16.5v24.8c-1.5-1.8-20.5-24.8-20.5-24.8h-15.3v50.1h16.6
		V303z"/>
	<path class="st1" d="M551.1,308.1h1.4c2.2,0,2.4,0,3.4,0.3c1.9,0.5,2.6,2,4.1,5.5l0.5,1l1.9,4.2c0,0,1.5,3.2,1.5,3.2
		c0,0,0.9,2.2,0.9,2.2c0,0,1.3,2.9,1.3,2.9h18.9l-0.6-1.5c0,0-1.3-2.8-1.3-2.8c0,0-1.5-3.3-1.5-3.3c0,0-1.3-2.8-1.3-2.8l-2-4.2
		c-2.2-4.8-4.3-6.9-6.6-8.2c1.1-0.6,1.9-1.4,2.6-2l1.1-1.1c2.8-2.5,4.4-6,4.4-9.8c0-4.7-2.6-9.5-6.6-12.1c-3.3-2-6-2.5-13.2-2.5
		h-24.7v50.2h16V308.1z M551.1,288.8h5.8c4.7,0,6.1,1,6.1,4.2c0,2.8-1.6,4.2-4.8,4.3c0,0-1.5,0.1-1.5,0.1c0,0-1,0.1-1,0.1h-4.7
		V288.8z"/>
	<polygon points="361.5,345.3 361.5,341.5 380.4,341.5 380.4,345.3 373,345.3 373,366.9 368.9,366.9 368.9,345.3 	"/>
	<path d="M404.5,366.2v0.6h-4.3L394,358h-5.6v8.8h-4.2v-25.3h10.5c1.4,0,2.6,0.2,3.7,0.6c1.1,0.4,2,1,2.8,1.8
		c0.8,0.7,1.3,1.6,1.7,2.6c0.4,1,0.6,2.1,0.6,3.2c0,1.8-0.5,3.3-1.5,4.7c-1,1.4-2.3,2.3-3.9,2.9L404.5,366.2z M394.6,354.6
		c0.7,0,1.3-0.1,1.9-0.4c0.6-0.2,1.1-0.6,1.5-1c0.4-0.4,0.7-0.9,1-1.5c0.2-0.6,0.4-1.2,0.4-1.9c0-0.6-0.1-1.3-0.3-1.8
		s-0.6-1.1-1-1.5c-0.4-0.4-0.9-0.7-1.5-1c-0.6-0.2-1.2-0.3-1.9-0.3h-6.3v9.4H394.6z"/>
	<path d="M413.7,361.6l-2.5,5.2h-4.4v-0.5l11.7-24.8h2l11.6,24.8v0.5h-4.4l-2.5-5.2H413.7z M415.1,358.1h8.9l-4.4-10.1L415.1,358.1z
		"/>
	<polygon points="439.6,359.5 443,350.4 446.6,341.5 451.1,341.5 451.1,342.1 440.4,366.8 438.7,366.8 428,342.1 428,341.5 
		432.4,341.5 436.1,350.2 439.5,359.5 	"/>
	<polygon points="470,345.2 458.8,345.2 458.8,351.9 469.4,351.9 469.4,355.6 458.8,355.6 458.8,363 470.2,363 470.2,366.9 
		454.6,366.9 454.6,341.5 470,341.5 	"/>
	<polygon points="479.7,363.1 490.6,363.1 490.6,366.9 475.4,366.9 475.4,341.5 479.7,341.5 	"/>
	<path d="M501.1,354.2c0-2,0.4-3.8,1.1-5.4c0.7-1.6,1.6-3,2.8-4.1c1.2-1.1,2.5-2,4.1-2.6c1.5-0.6,3.2-0.9,4.9-0.9
		c1.2,0,2.5,0.2,3.7,0.5c1.2,0.3,2.3,0.8,3.3,1.4c1,0.6,1.9,1.5,2.7,2.5c0.8,1,1.3,2.2,1.7,3.6h-4.2c-0.7-1.5-1.7-2.5-2.9-3.2
		c-1.2-0.6-2.7-1-4.4-1c-1.3,0-2.5,0.2-3.6,0.7c-1.1,0.5-1.9,1.1-2.7,2c-0.7,0.8-1.3,1.8-1.7,2.9c-0.4,1.1-0.6,2.3-0.6,3.6
		c0,1.4,0.2,2.6,0.6,3.7c0.4,1.1,1,2.1,1.7,2.9c0.7,0.8,1.6,1.4,2.7,1.9c1.1,0.5,2.2,0.7,3.5,0.7c1.1,0,2.1-0.1,3-0.3
		c0.9-0.2,1.7-0.6,2.4-1.1c0.7-0.5,1.3-1.2,1.8-2c0.5-0.8,0.8-1.9,1-3.1h-7.9v-3.6H526c0,1.2,0,2.4-0.1,3.5
		c-0.1,1.1-0.4,2.2-0.8,3.3c-0.5,1.2-1.1,2.3-1.9,3.1c-0.8,0.9-1.6,1.6-2.6,2.2c-1,0.6-2,1-3.2,1.3c-1.1,0.3-2.3,0.4-3.6,0.4
		c-1.7,0-3.4-0.3-4.9-0.9c-1.5-0.6-2.9-1.4-4.1-2.6c-1.2-1.1-2.1-2.5-2.8-4.1C501.4,358,501.1,356.2,501.1,354.2"/>
	<path d="M550.3,366.2v0.6H546l-6.3-8.8h-5.6v8.8h-4.2v-25.3h10.5c1.4,0,2.6,0.2,3.7,0.6c1.1,0.4,2,1,2.8,1.8
		c0.8,0.7,1.3,1.6,1.7,2.6c0.4,1,0.6,2.1,0.6,3.2c0,1.8-0.5,3.3-1.5,4.7c-1,1.4-2.3,2.3-3.9,2.9L550.3,366.2z M540.3,354.6
		c0.7,0,1.3-0.1,1.9-0.4c0.6-0.2,1.1-0.6,1.5-1c0.4-0.4,0.7-0.9,1-1.5c0.2-0.6,0.4-1.2,0.4-1.9c0-0.6-0.1-1.3-0.3-1.8
		c-0.2-0.6-0.6-1.1-1-1.5c-0.4-0.4-0.9-0.7-1.5-1c-0.6-0.2-1.2-0.3-1.9-0.3h-6.3v9.4H540.3z"/>
	<path d="M577.6,354.2c0,1.9-0.3,3.7-1,5.3c-0.6,1.6-1.5,3-2.7,4.1c-1.1,1.2-2.5,2.1-4.1,2.7c-1.6,0.6-3.3,1-5.2,1
		c-1.7,0-3.4-0.3-4.9-0.9s-2.9-1.4-4.1-2.6c-1.2-1.1-2.1-2.5-2.8-4.1c-0.7-1.6-1-3.5-1-5.5c0-2,0.3-3.9,1-5.5c0.7-1.6,1.6-3,2.8-4.1
		c1.2-1.1,2.6-2,4.1-2.6c1.6-0.6,3.2-0.9,4.9-0.9c1.7,0,3.4,0.3,4.9,0.9c1.6,0.6,2.9,1.5,4.1,2.6c1.2,1.1,2.1,2.5,2.8,4.1
		C577.2,350.3,577.6,352.1,577.6,354.2 M556.1,354.2c0,1.5,0.2,2.8,0.7,3.9c0.5,1.1,1.1,2.1,1.8,2.9c0.8,0.8,1.7,1.4,2.7,1.8
		c1.1,0.4,2.2,0.6,3.4,0.6c1.2,0,2.3-0.2,3.3-0.6c1.1-0.4,2-1,2.8-1.8c0.8-0.8,1.4-1.7,1.9-2.9c0.5-1.1,0.7-2.4,0.7-3.9
		c0-1.4-0.2-2.7-0.7-3.9c-0.5-1.1-1.1-2.1-1.9-2.9c-0.8-0.8-1.7-1.4-2.8-1.8c-1.1-0.4-2.2-0.6-3.3-0.6c-1.2,0-2.3,0.2-3.4,0.6
		c-1,0.4-2,1-2.8,1.8c-0.8,0.8-1.4,1.7-1.9,2.9S556.1,352.7,556.1,354.2"/>
	<path d="M590.8,367.2c-1.4,0-2.7-0.2-3.9-0.6c-1.2-0.4-2.2-1-3.1-1.7c-0.9-0.8-1.6-1.7-2.1-2.8c-0.5-1.1-0.8-2.3-0.8-3.8v-16.8h4.2
		v16.7c0,0.8,0.1,1.6,0.4,2.2c0.3,0.6,0.7,1.2,1.2,1.6c0.5,0.4,1.1,0.8,1.8,1c0.7,0.2,1.4,0.3,2.2,0.3c0.8,0,1.5-0.1,2.2-0.3
		c0.7-0.2,1.3-0.6,1.8-1c0.5-0.4,0.9-1,1.2-1.6c0.3-0.6,0.4-1.4,0.4-2.2v-16.7h4.2v16.8c0,1.4-0.3,2.7-0.8,3.8
		c-0.5,1.1-1.2,2-2.1,2.8c-0.9,0.8-1.9,1.3-3.1,1.7C593.4,367,592.1,367.2,590.8,367.2"/>
	<path d="M605.3,366.9v-25.3h10.5c1.4,0,2.7,0.2,3.8,0.7c1.1,0.5,2,1.1,2.8,1.9c0.8,0.8,1.4,1.8,1.8,2.8c0.4,1.1,0.6,2.2,0.6,3.4
		c0,1.2-0.2,2.3-0.6,3.4c-0.4,1.1-1,2-1.8,2.8c-0.8,0.8-1.7,1.4-2.8,1.9c-1.1,0.5-2.3,0.7-3.7,0.7h-6.3v7.6H605.3z M615.8,355.6
		c0.7,0,1.4-0.1,2-0.4c0.6-0.3,1.1-0.6,1.5-1.1c0.4-0.5,0.8-1,1-1.7c0.2-0.6,0.4-1.3,0.4-2c0-0.7-0.1-1.4-0.3-2
		c-0.2-0.6-0.6-1.2-1-1.6c-0.4-0.5-1-0.8-1.6-1.1c-0.6-0.3-1.3-0.4-2-0.4h-6.3v10.4H615.8z"/>
	<path d="M355.6,334.1c-0.4-2.9-5.8-3.5-10.6-3.1l-6.9,0.8l-19-16c-2.1-1.9-2.8-2-6.3-1.5l-0.3,0l13.2,20c-3.9,0.8-10.2,2-14.7,2.6
		l-0.3,0l-6.4-4.9l-4.5,1l6,6.7c-299.3,16-277.5-10-256.1-28.7c0.8-0.7,0-1.1,0-1.1c-18.6,8.7-66.8,41.3,57.4,42.7
		c110.7,1.2,182.7-7.7,198.9-9.9l-3.8,7.9l4.4-0.4l5-6.5l7.2-0.9c3.3-0.4,7.2-0.7,7.6-0.7l0.3,0l-7.8,24.2c3.5-0.5,4.4-0.6,5.9-3.2
		l14.4-22.1l7.3-1.1C351.7,339,356,336.8,355.6,334.1"/>
</g>
</svg>
